<svg height="512pt" viewBox="-46 0 512 512" width="512pt" xmlns="http://www.w3.org/2000/svg"><path d="m210 512c-5.683594 0-10.875-3.210938-13.417969-8.292969l-46.140625-92.277343c-88.921875-26.21875-150.441406-108.070313-150.441406-201.429688 0-115.792969 94.207031-210 210-210s210 94.207031 210 210c0 93.359375-61.519531 175.214844-150.445312 201.429688l-46.140626 92.277343c-2.539062 5.082031-7.734374 8.292969-13.414062 8.292969zm0 0" fill="#ff415b"/><path d="m210.28125.00390625v511.98437475c5.570312-.101562 10.636719-3.285156 13.132812-8.28125l46.140626-92.277343c88.925781-26.214844 150.445312-108.070313 150.445312-201.429688 0-115.699219-94.054688-209.84375-209.71875-209.99609375zm0 0" fill="#b20042"/><path d="m213 126s-77.71875 32.738281-77.71875 41.019531v98.980469c0 8.285156 6.714844 15 15 15h120c8.285156 0 15-6.714844 15-15v-100c0-8.285156-72.28125-40-72.28125-40zm0 0" fill="#f3eee9"/><path d="m213 126s-.984375.414062-2.71875 1.15625v153.84375h60c8.285156 0 15-6.714844 15-15v-100c0-8.285156-72.28125-40-72.28125-40zm0 0" fill="#e9dfda"/><path d="m120.042969 194.066406c-5.132813 0-10.132813-2.636718-12.933594-7.378906-4.207031-7.136719-1.835937-16.332031 5.296875-20.542969l89.9375-53.0625c4.632812-2.734375 10.371094-2.78125 15.046875-.113281l90.003906 51.269531c7.199219 4.101563 9.710938 13.257813 5.609375 20.457031-4.101562 7.199219-13.261718 9.707032-20.457031 5.609376l-82.449219-46.964844-82.445312 48.644531c-2.390625 1.410156-5.015625 2.082031-7.609375 2.082031zm0 0" fill="#ffda2d"/><path d="m307.394531 164.238281-90.003906-51.269531c-2.207031-1.261719-4.652344-1.90625-7.109375-1.957031v32.433593l82.265625 46.859376c7.195313 4.101562 16.355469 1.589843 20.457031-5.609376 4.101563-7.195312 1.589844-16.355468-5.609375-20.457031zm0 0" fill="#ebb100"/></svg>